<svg xmlns="http://www.w3.org/2000/svg" width="32" height="32" viewBox="0 0 32 32">
    <g fill="none" fill-rule="evenodd">
        <g fill="#192325" fill-rule="nonzero">
            <g>
                <g>
                    <g>
                        <g>
                            <path d="M16 3c7.18 0 13 5.82 13 13s-5.82 13-13 13S3 23.18 3 16 8.82 3 16 3zm2.5 19h-5c-.807 0-1.5.762-1.5 1.75v2.5c1.24.484 2.589.75 4 .75s2.76-.266 4-.75v-2.5c0-.988-.693-1.75-1.5-1.75zM16 5C9.925 5 5 9.925 5 16c0 3.861 1.99 7.258 5 9.22v-1.47c0-2.052 1.543-3.75 3.5-3.75h5c1.957 0 3.5 1.698 3.5 3.75l.001 1.47C25.011 23.257 27 19.86 27 16c0-6.075-4.925-11-11-11zm0 4c2.761 0 5 2.239 5 5s-2.239 5-5 5-5-2.239-5-5 2.239-5 5-5zm0 2c-1.657 0-3 1.343-3 3s1.343 3 3 3 3-1.343 3-3-1.343-3-3-3z" transform="translate(-1607 -1751) translate(907 1735) translate(295 12) translate(401) translate(4 4)"/>
                        </g>
                    </g>
                </g>
            </g>
        </g>
    </g>
</svg>
